<mxfile host="app.diagrams.net" modified="2023-12-09T17:26:19.754Z" agent="Mozilla/5.0 (Windows NT 10.0; Win64; x64) AppleWebKit/537.36 (KHTML, like Gecko) Chrome/119.0.0.0 Safari/537.36 Edg/119.0.0.0" etag="GfaYNVtk4zULup9dkLyl" version="22.1.7" type="github">
  <diagram name="第 1 页" id="nOA1DqOnacEwsndsl3H8">
    <mxGraphModel dx="2295" dy="2058" grid="0" gridSize="10" guides="1" tooltips="1" connect="1" arrows="1" fold="1" page="1" pageScale="1" pageWidth="827" pageHeight="1169" math="0" shadow="0">
      <root>
        <mxCell id="0" />
        <mxCell id="1" parent="0" />
        <mxCell id="hrz-84ihu9kp6kxDPxJm-22" style="edgeStyle=orthogonalEdgeStyle;rounded=0;orthogonalLoop=1;jettySize=auto;html=1;exitX=0.5;exitY=1;exitDx=0;exitDy=0;" edge="1" parent="1" source="hrz-84ihu9kp6kxDPxJm-14" target="hrz-84ihu9kp6kxDPxJm-15">
          <mxGeometry relative="1" as="geometry" />
        </mxCell>
        <mxCell id="hrz-84ihu9kp6kxDPxJm-23" style="edgeStyle=orthogonalEdgeStyle;rounded=0;orthogonalLoop=1;jettySize=auto;html=1;exitX=0.5;exitY=1;exitDx=0;exitDy=0;" edge="1" parent="1" source="hrz-84ihu9kp6kxDPxJm-14" target="hrz-84ihu9kp6kxDPxJm-16">
          <mxGeometry relative="1" as="geometry" />
        </mxCell>
        <mxCell id="hrz-84ihu9kp6kxDPxJm-24" style="edgeStyle=orthogonalEdgeStyle;rounded=0;orthogonalLoop=1;jettySize=auto;html=1;exitX=0.5;exitY=1;exitDx=0;exitDy=0;" edge="1" parent="1" source="hrz-84ihu9kp6kxDPxJm-14" target="hrz-84ihu9kp6kxDPxJm-17">
          <mxGeometry relative="1" as="geometry" />
        </mxCell>
        <mxCell id="hrz-84ihu9kp6kxDPxJm-25" style="edgeStyle=orthogonalEdgeStyle;rounded=0;orthogonalLoop=1;jettySize=auto;html=1;exitX=0.5;exitY=1;exitDx=0;exitDy=0;" edge="1" parent="1" source="hrz-84ihu9kp6kxDPxJm-14" target="hrz-84ihu9kp6kxDPxJm-18">
          <mxGeometry relative="1" as="geometry" />
        </mxCell>
        <mxCell id="hrz-84ihu9kp6kxDPxJm-26" style="edgeStyle=orthogonalEdgeStyle;rounded=0;orthogonalLoop=1;jettySize=auto;html=1;exitX=0.5;exitY=1;exitDx=0;exitDy=0;" edge="1" parent="1" source="hrz-84ihu9kp6kxDPxJm-14" target="hrz-84ihu9kp6kxDPxJm-19">
          <mxGeometry relative="1" as="geometry" />
        </mxCell>
        <mxCell id="hrz-84ihu9kp6kxDPxJm-14" value="Root" style="ellipse;whiteSpace=wrap;html=1;aspect=fixed;" vertex="1" parent="1">
          <mxGeometry x="-537" y="-1131" width="42" height="42" as="geometry" />
        </mxCell>
        <mxCell id="hrz-84ihu9kp6kxDPxJm-29" style="edgeStyle=orthogonalEdgeStyle;rounded=0;orthogonalLoop=1;jettySize=auto;html=1;exitX=0.5;exitY=1;exitDx=0;exitDy=0;" edge="1" parent="1" source="hrz-84ihu9kp6kxDPxJm-15" target="hrz-84ihu9kp6kxDPxJm-27">
          <mxGeometry relative="1" as="geometry" />
        </mxCell>
        <mxCell id="hrz-84ihu9kp6kxDPxJm-30" style="edgeStyle=orthogonalEdgeStyle;rounded=0;orthogonalLoop=1;jettySize=auto;html=1;exitX=0.5;exitY=1;exitDx=0;exitDy=0;entryX=0.5;entryY=0;entryDx=0;entryDy=0;" edge="1" parent="1" source="hrz-84ihu9kp6kxDPxJm-15" target="hrz-84ihu9kp6kxDPxJm-28">
          <mxGeometry relative="1" as="geometry" />
        </mxCell>
        <mxCell id="hrz-84ihu9kp6kxDPxJm-15" value="" style="ellipse;whiteSpace=wrap;html=1;aspect=fixed;" vertex="1" parent="1">
          <mxGeometry x="-665" y="-1048" width="42" height="42" as="geometry" />
        </mxCell>
        <mxCell id="hrz-84ihu9kp6kxDPxJm-16" value="" style="ellipse;whiteSpace=wrap;html=1;aspect=fixed;" vertex="1" parent="1">
          <mxGeometry x="-601" y="-1048" width="42" height="42" as="geometry" />
        </mxCell>
        <mxCell id="hrz-84ihu9kp6kxDPxJm-17" value="" style="ellipse;whiteSpace=wrap;html=1;aspect=fixed;" vertex="1" parent="1">
          <mxGeometry x="-537" y="-1048" width="42" height="42" as="geometry" />
        </mxCell>
        <mxCell id="hrz-84ihu9kp6kxDPxJm-18" value="" style="ellipse;whiteSpace=wrap;html=1;aspect=fixed;" vertex="1" parent="1">
          <mxGeometry x="-473" y="-1048" width="42" height="42" as="geometry" />
        </mxCell>
        <mxCell id="hrz-84ihu9kp6kxDPxJm-19" value="" style="ellipse;whiteSpace=wrap;html=1;aspect=fixed;" vertex="1" parent="1">
          <mxGeometry x="-406" y="-1048" width="42" height="42" as="geometry" />
        </mxCell>
        <mxCell id="hrz-84ihu9kp6kxDPxJm-27" value="" style="ellipse;whiteSpace=wrap;html=1;aspect=fixed;" vertex="1" parent="1">
          <mxGeometry x="-719" y="-966" width="42" height="42" as="geometry" />
        </mxCell>
        <mxCell id="hrz-84ihu9kp6kxDPxJm-39" style="edgeStyle=orthogonalEdgeStyle;rounded=0;orthogonalLoop=1;jettySize=auto;html=1;exitX=0.5;exitY=1;exitDx=0;exitDy=0;" edge="1" parent="1" source="hrz-84ihu9kp6kxDPxJm-28" target="hrz-84ihu9kp6kxDPxJm-34">
          <mxGeometry relative="1" as="geometry" />
        </mxCell>
        <mxCell id="hrz-84ihu9kp6kxDPxJm-40" style="edgeStyle=orthogonalEdgeStyle;rounded=0;orthogonalLoop=1;jettySize=auto;html=1;exitX=0.5;exitY=1;exitDx=0;exitDy=0;entryX=0.5;entryY=0;entryDx=0;entryDy=0;" edge="1" parent="1" source="hrz-84ihu9kp6kxDPxJm-28" target="hrz-84ihu9kp6kxDPxJm-35">
          <mxGeometry relative="1" as="geometry" />
        </mxCell>
        <mxCell id="hrz-84ihu9kp6kxDPxJm-28" value="" style="ellipse;whiteSpace=wrap;html=1;aspect=fixed;" vertex="1" parent="1">
          <mxGeometry x="-615" y="-966" width="42" height="42" as="geometry" />
        </mxCell>
        <mxCell id="hrz-84ihu9kp6kxDPxJm-31" value="" style="shape=waypoint;sketch=0;fillStyle=solid;size=6;pointerEvents=1;points=[];fillColor=none;resizable=0;rotatable=0;perimeter=centerPerimeter;snapToPoint=1;" vertex="1" parent="1">
          <mxGeometry x="-656" y="-955" width="20" height="20" as="geometry" />
        </mxCell>
        <mxCell id="hrz-84ihu9kp6kxDPxJm-32" value="" style="shape=waypoint;sketch=0;fillStyle=solid;size=6;pointerEvents=1;points=[];fillColor=none;resizable=0;rotatable=0;perimeter=centerPerimeter;snapToPoint=1;" vertex="1" parent="1">
          <mxGeometry x="-643" y="-955" width="20" height="20" as="geometry" />
        </mxCell>
        <mxCell id="hrz-84ihu9kp6kxDPxJm-33" value="" style="shape=waypoint;sketch=0;fillStyle=solid;size=6;pointerEvents=1;points=[];fillColor=none;resizable=0;rotatable=0;perimeter=centerPerimeter;snapToPoint=1;" vertex="1" parent="1">
          <mxGeometry x="-670" y="-955" width="20" height="20" as="geometry" />
        </mxCell>
        <mxCell id="hrz-84ihu9kp6kxDPxJm-42" style="edgeStyle=orthogonalEdgeStyle;rounded=0;orthogonalLoop=1;jettySize=auto;html=1;exitX=0.5;exitY=1;exitDx=0;exitDy=0;entryX=0.5;entryY=0;entryDx=0;entryDy=0;" edge="1" parent="1" source="hrz-84ihu9kp6kxDPxJm-34" target="hrz-84ihu9kp6kxDPxJm-41">
          <mxGeometry relative="1" as="geometry" />
        </mxCell>
        <mxCell id="hrz-84ihu9kp6kxDPxJm-44" style="edgeStyle=orthogonalEdgeStyle;rounded=0;orthogonalLoop=1;jettySize=auto;html=1;exitX=0.5;exitY=1;exitDx=0;exitDy=0;" edge="1" parent="1" source="hrz-84ihu9kp6kxDPxJm-34" target="hrz-84ihu9kp6kxDPxJm-43">
          <mxGeometry relative="1" as="geometry" />
        </mxCell>
        <mxCell id="hrz-84ihu9kp6kxDPxJm-34" value="" style="ellipse;whiteSpace=wrap;html=1;aspect=fixed;" vertex="1" parent="1">
          <mxGeometry x="-670" y="-883" width="42" height="42" as="geometry" />
        </mxCell>
        <mxCell id="hrz-84ihu9kp6kxDPxJm-35" value="" style="ellipse;whiteSpace=wrap;html=1;aspect=fixed;" vertex="1" parent="1">
          <mxGeometry x="-566" y="-883" width="42" height="42" as="geometry" />
        </mxCell>
        <mxCell id="hrz-84ihu9kp6kxDPxJm-36" value="" style="shape=waypoint;sketch=0;fillStyle=solid;size=6;pointerEvents=1;points=[];fillColor=none;resizable=0;rotatable=0;perimeter=centerPerimeter;snapToPoint=1;" vertex="1" parent="1">
          <mxGeometry x="-607" y="-872" width="20" height="20" as="geometry" />
        </mxCell>
        <mxCell id="hrz-84ihu9kp6kxDPxJm-37" value="" style="shape=waypoint;sketch=0;fillStyle=solid;size=6;pointerEvents=1;points=[];fillColor=none;resizable=0;rotatable=0;perimeter=centerPerimeter;snapToPoint=1;" vertex="1" parent="1">
          <mxGeometry x="-594" y="-872" width="20" height="20" as="geometry" />
        </mxCell>
        <mxCell id="hrz-84ihu9kp6kxDPxJm-38" value="" style="shape=waypoint;sketch=0;fillStyle=solid;size=6;pointerEvents=1;points=[];fillColor=none;resizable=0;rotatable=0;perimeter=centerPerimeter;snapToPoint=1;" vertex="1" parent="1">
          <mxGeometry x="-621" y="-872" width="20" height="20" as="geometry" />
        </mxCell>
        <mxCell id="hrz-84ihu9kp6kxDPxJm-41" value="A" style="ellipse;whiteSpace=wrap;html=1;aspect=fixed;fillColor=#B3B3B3;" vertex="1" parent="1">
          <mxGeometry x="-740" y="-801" width="42" height="42" as="geometry" />
        </mxCell>
        <mxCell id="hrz-84ihu9kp6kxDPxJm-43" value="B" style="ellipse;whiteSpace=wrap;html=1;aspect=fixed;fillColor=#B3B3B3;" vertex="1" parent="1">
          <mxGeometry x="-670" y="-799" width="42" height="42" as="geometry" />
        </mxCell>
      </root>
    </mxGraphModel>
  </diagram>
</mxfile>
